<?xml version="1.0" encoding="UTF-8" standalone="no"?>
<svg
  xmlns:dc="http://purl.org/dc/elements/1.1/"
  xmlns:cc="http://creativecommons.org/ns#"
  xmlns:rdf="http://www.w3.org/1999/02/22-rdf-syntax-ns#"
  xmlns:svg="http://www.w3.org/2000/svg"
  xmlns="http://www.w3.org/2000/svg"
  viewBox="0 0 1200 480"
  height="480"
  width="1200"
  xml:space="preserve"
  id="svg2"
  version="1.1"><metadata
     id="metadata8"><rdf:RDF><cc:Work
         rdf:about=""><dc:format>image/svg+xml</dc:format><dc:type
  rdf:resource="http://purl.org/dc/dcmitype/StillImage"/></cc:Work></rdf:RDF></metadata>
  <defs
    id="defs6"/>
  <g
    transform="matrix(1.3333333,0,0,-1.3333333,0,480)"
    id="g10"><g
       transform="scale(0.1)"
       id="g12"><path
         id="path14"
         style="fill:#231f20;fill-opacity:1;fill-rule:nonzero;stroke:none"
         d="m 1445.3,1387.75 c -179.42,0 -284.04,116.29 -284.04,297.99 0,181.7 103.43,296.8 282.83,296.8 179.41,0 284.04,-116.27 284.04,-297.97 0,-181.72 -103.43,-296.82 -282.83,-296.82 z m 0.08,783.68 c -316.54,0 -500.38,-188.75 -500.38,-486.94 0,-298.2 182.47,-485.6 499.03,-485.6 316.52,0 500.36,188.75 500.36,486.93 0,298.2 -182.47,485.61 -499.01,485.61" /><path
    id="path16"
    style="fill:#231f20;fill-opacity:1;fill-rule:nonzero;stroke:none"
    d="m 2542.89,1215 v 416.64 c 0,96.72 -45.68,146.43 -123.59,146.43 -77.91,0 -127.6,-49.71 -127.6,-146.43 V 1215 h -204.18 v 720 h 204.18 v -102.09 c 47,60.45 107.45,115.53 210.9,115.53 154.46,0 244.46,-102.09 244.46,-267.31 V 1215 h -204.17"/><path
    id="path18"
    style="fill:#231f20;fill-opacity:1;fill-rule:nonzero;stroke:none"
    d="m 3138.89,1452.77 c 0,-47.01 21.34,-69.86 69.7,-69.86 39.85,0 75.42,9.42 106.71,25.53 v -163.89 c -42.97,-25.51 -92.68,-41.64 -161.18,-41.64 -124.93,0 -209.56,49.71 -209.56,216.27 v 348.69 h -85.97 V 1935 h 85.97 v 184.02 h 194.33 V 1935 h 175.82 v -167.13 h -175.82 v -315.1"/><path
    id="path20"
    style="fill:#231f20;fill-opacity:1;fill-rule:nonzero;stroke:none"
    d="m 3881.65,1472.38 c 0,-73.86 -66.47,-128.12 -161.85,-128.12 -65.81,0 -113.37,32.23 -113.37,87.3 v 2.7 c 0,64.47 55.62,99.39 142.93,99.39 49.7,0 97.28,-8.98 132.29,-23.12 z m -131.48,470.69 c -122.24,0 -200.15,-22.83 -279.4,-57.78 l 47.3,-146.42 c 65.81,24.16 128.39,40.82 206.3,40.82 102.08,0 160.09,-48.89 160.09,-133.52 v -10.21 c -50.82,13.83 -110.93,22.05 -183.46,22.05 -170.6,0 -292.03,-74.9 -292.03,-237.21 v -2.67 c 0,-142.39 111.5,-216.55 247.17,-216.55 100.02,0 170.81,35.16 222.7,85.71 V 1215 h 192.37 v 417.75 c 0,194.79 -98.05,310.32 -321.04,310.32"/><path
    id="path22"
    style="fill:#231f20;fill-opacity:1;fill-rule:nonzero;stroke:none"
    d="m 4648.71,1764.86 c -135.66,0 -215.2,-80.07 -215.2,-252.01 V 1215 h -200.43 v 720 h 200.43 v -145.08 c 41.64,99.42 105.06,163.89 225.96,158.52 v -183.58 h -10.76"/><path
    id="path24"
    style="fill:#231f20;fill-opacity:1;fill-rule:nonzero;stroke:none"
    d="m 4978.63,1931.25 3.75,3.75 h -204.16 v -720 h 204.16 v 720 z m 9.13,264.36 v -181.35 h -214.93 v 181.35 h 214.93 l -3.75,-3.75 3.75,3.75"/><path
    id="path26"
    style="fill:#231f20;fill-opacity:1;fill-rule:nonzero;stroke:none"
    d="m 5511.6,1372.99 c -118.97,0 -188.34,78.75 -188.34,201.27 0,121.91 66.45,200.08 187.17,200.08 119.54,0 188.93,-78.75 188.93,-201.25 0,-121.94 -66.46,-200.1 -187.76,-200.1 z m 0.05,575.45 c -244.44,0 -389.89,-145.08 -389.89,-375.8 0,-230.02 144.76,-373.75 388.51,-373.75 245.13,0 390.58,145.08 390.58,375.11 0,230.73 -144.76,374.44 -389.2,374.44"/><path
    id="path28"
    style="fill:#231f20;fill-opacity:1;fill-rule:nonzero;stroke:none"
    d="M 7155.01,2700 C 6543.46,2700 6255,2411.54 6255,1800.01 6255,1188.44 6543.46,900 7155.01,900 7766.54,900 8055,1188.44 8055,1800.01 8055,2411.54 7766.54,2700 7155.01,2700"/><path
    id="path30"
    style="fill:#ffffff;fill-opacity:1;fill-rule:nonzero;stroke:none"
    d="m 7569.44,2020.01 c -58.3,-101.32 -148.88,-172.86 -250.65,-209.64 -51.78,-18.71 -116.78,-19.54 -161.14,27.6 -9.19,-56.4 -3.18,-108.39 27.94,-138.65 13.12,-12.76 32.38,-23.29 49.68,-26.34 21.38,-3.77 36.67,-4.72 56.27,-1.28 0.41,-135.29 -51.85,-251.49 -136.66,-338.29 -27.48,28.09 -52.88,60.14 -73.48,95.69 -58.59,101.15 -75.25,215.36 -56.22,321.88 9.69,54.2 41.47,110.91 104.47,125.75 -44.25,36.17 -92.28,56.95 -134.05,45.13 -17.6,-4.98 -36.35,-16.4 -47.64,-29.85 -14.01,-16.7 -22.49,-29.5 -29.33,-48.31 -117.18,67.3 -191.58,170.57 -224.32,287.31 38.07,9.74 78.53,15.72 119.6,15.78 116.9,0.17 224.14,-42.5 306.88,-112.25 42.09,-35.49 75.31,-91.37 56.67,-153.35 53.44,20.24 95.45,51.44 106.1,93.53 4.49,17.73 3.98,39.68 -2.03,56.19 -7.48,20.56 -14.35,34.34 -27.33,49.74 116.98,68.03 243.77,80.88 361.37,50.83 -10.59,-37.84 -25.65,-75.87 -46.13,-111.47 z m -414.83,146.34 c -0.01,-0.01 -0.01,-0.01 -0.02,-0.02 -109.88,76.09 -231.14,106.27 -340.68,106.27 -93.37,0 -182.47,-21.95 -261.18,-60 14.66,-190.99 124.37,-393.39 341.44,-498.01 -11.02,-133.3 23.48,-253.49 78.28,-348.4 46.69,-80.87 110.25,-147.05 182.56,-196.19 158.14,108.23 278.6,304.55 260.55,544.99 121.09,57.1 208,147.13 262.84,242.12 46.69,80.86 72.22,169 78.62,256.19 -172.85,82.86 -403.17,89 -602.41,-46.95"/></g></g></svg>
