<?xml version="1.0" encoding="utf-8"?>
<!-- Generator: Adobe Illustrator 22.1.0, SVG Export Plug-In . SVG Version: 6.00 Build 0)  -->
<svg version="1.0"
	 id="svg2" xmlns:cc="http://creativecommons.org/ns#" xmlns:dc="http://purl.org/dc/elements/1.1/" xmlns:rdf="http://www.w3.org/1999/02/22-rdf-syntax-ns#" xmlns:svg="http://www.w3.org/2000/svg"
	 xmlns="http://www.w3.org/2000/svg" xmlns:xlink="http://www.w3.org/1999/xlink" x="0px" y="0px" viewBox="0 0 480 480"
	 style="enable-background:new 0 0 480 480;" xml:space="preserve">
<style type="text/css">
	.st0{fill:#0093D6;}
	.st1{fill:#FFFFFF;}
</style>
<g id="g10" transform="matrix(1.3333333,0,0,-1.3333333,0,480)">
	<g id="g12" transform="scale(0.1)">
		<path id="path28" class="st0" d="M1800,2700c-611.5,0-900-288.5-900-900c0-611.6,288.5-900,900-900s900,288.4,900,900
			C2700,2411.5,2411.5,2700,1800,2700"/>
		<path id="path30" class="st1" d="M2214.4,2020c-58.3-101.3-148.9-172.9-250.7-209.6c-51.8-18.7-116.8-19.5-161.1,27.6
			c-9.2-56.4-3.2-108.4,27.9-138.7c13.1-12.8,32.4-23.3,49.7-26.3c21.4-3.8,36.7-4.7,56.3-1.3c0.4-135.3-51.9-251.5-136.7-338.3
			c-27.5,28.1-52.9,60.1-73.5,95.7c-58.6,101.2-75.3,215.4-56.2,321.9c9.7,54.2,41.5,110.9,104.5,125.8
			c-44.3,36.2-92.3,56.9-134,45.1c-17.6-5-36.4-16.4-47.6-29.8c-14-16.7-22.5-29.5-29.3-48.3c-117.2,67.3-191.6,170.6-224.3,287.3
			c38.1,9.7,78.5,15.7,119.6,15.8c116.9,0.2,224.1-42.5,306.9-112.3c42.1-35.5,75.3-91.4,56.7-153.3c53.4,20.2,95.5,51.4,106.1,93.5
			c4.5,17.7,4,39.7-2,56.2c-7.5,20.6-14.4,34.3-27.3,49.7c117,68,243.8,80.9,361.4,50.8C2250,2093.6,2234.9,2055.6,2214.4,2020
			L2214.4,2020z M1799.6,2166.4C1799.6,2166.3,1799.6,2166.3,1799.6,2166.4c-109.9,76.1-231.2,106.3-340.7,106.3
			c-93.4,0-182.5-21.9-261.2-60c14.7-191,124.4-393.4,341.4-498c-11-133.3,23.5-253.5,78.3-348.4c46.7-80.9,110.3-147.1,182.6-196.2
			c158.1,108.2,278.6,304.6,260.5,545c121.1,57.1,208,147.1,262.8,242.1c46.7,80.9,72.2,169,78.6,256.2
			C2229.2,2296.2,1998.8,2302.3,1799.6,2166.4"/>
	</g>
</g>
</svg>
