<?xml version="1.0" encoding="utf-8"?>
<!-- Generator: Adobe Illustrator 22.1.0, SVG Export Plug-In . SVG Version: 6.00 Build 0)  -->
<svg version="1.0"
	 id="svg2" xmlns:cc="http://creativecommons.org/ns#" xmlns:dc="http://purl.org/dc/elements/1.1/" xmlns:rdf="http://www.w3.org/1999/02/22-rdf-syntax-ns#" xmlns:svg="http://www.w3.org/2000/svg"
	 xmlns="http://www.w3.org/2000/svg" xmlns:xlink="http://www.w3.org/1999/xlink" x="0px" y="0px" viewBox="0 0 1200 480"
	 style="enable-background:new 0 0 1200 480;" xml:space="preserve">
<style type="text/css">
	.st0{fill:#231F20;}
	.st1{fill:#0093D6;}
	.st2{fill:#FFFFFF;}
</style>
<g id="g10" transform="matrix(1.3333333,0,0,-1.3333333,0,480)">
	<g id="g12" transform="scale(0.1)">
		<path id="path14" class="st0" d="M1445.3,1387.8c-179.4,0-284,116.3-284,298s103.4,296.8,282.8,296.8s284-116.3,284-298
			C1728.1,1502.9,1624.7,1387.8,1445.3,1387.8z M1445.4,2171.4c-316.5,0-500.4-188.8-500.4-486.9c0-298.2,182.5-485.6,499-485.6
			s500.4,188.8,500.4,486.9C1944.4,1984,1761.9,2171.4,1445.4,2171.4"/>
		<path id="path16" class="st0" d="M2542.9,1215v416.6c0,96.7-45.7,146.4-123.6,146.4c-77.9,0-127.6-49.7-127.6-146.4V1215h-204.2
			v720h204.2v-102.1c47,60.4,107.4,115.5,210.9,115.5c154.5,0,244.5-102.1,244.5-267.3V1215H2542.9"/>
		<path id="path18" class="st0" d="M3138.9,1452.8c0-47,21.3-69.9,69.7-69.9c39.9,0,75.4,9.4,106.7,25.5v-163.9
			c-43-25.5-92.7-41.6-161.2-41.6c-124.9,0-209.6,49.7-209.6,216.3v348.7h-86V1935h86v184h194.3v-184h175.8v-167.1h-175.8v-315.1"/>
		<path id="path20" class="st0" d="M3881.7,1472.4c0-73.9-66.5-128.1-161.9-128.1c-65.8,0-113.4,32.2-113.4,87.3v2.7
			c0,64.5,55.6,99.4,142.9,99.4c49.7,0,97.3-9,132.3-23.1L3881.7,1472.4z M3750.2,1943.1c-122.2,0-200.1-22.8-279.4-57.8l47.3-146.4
			c65.8,24.2,128.4,40.8,206.3,40.8c102.1,0,160.1-48.9,160.1-133.5V1636c-50.8,13.8-110.9,22.1-183.5,22.1
			c-170.6,0-292-74.9-292-237.2v-2.7c0-142.4,111.5-216.6,247.2-216.6c100,0,170.8,35.2,222.7,85.7V1215h192.4v417.8
			C4071.2,1827.5,3973.2,1943.1,3750.2,1943.1"/>
		<path id="path22" class="st0" d="M4648.7,1764.9c-135.7,0-215.2-80.1-215.2-252V1215h-200.4v720h200.4v-145.1
			c41.6,99.4,105.1,163.9,226,158.5v-183.6L4648.7,1764.9"/>
		<path id="path24" class="st0" d="M4978.6,1931.3l3.8,3.8h-204.2v-720h204.2v720L4978.6,1931.3z M4987.8,2195.6v-181.4h-214.9
			v181.4H4987.8l-3.8-3.8L4987.8,2195.6"/>
		<path id="path26" class="st0" d="M5511.6,1373c-119,0-188.3,78.8-188.3,201.3c0,121.9,66.5,200.1,187.2,200.1
			c119.5,0,188.9-78.8,188.9-201.3C5699.4,1451.2,5632.9,1373,5511.6,1373L5511.6,1373z M5511.7,1948.4
			c-244.4,0-389.9-145.1-389.9-375.8c0-230,144.8-373.8,388.5-373.8c245.1,0,390.6,145.1,390.6,375.1
			C5900.9,1804.7,5756.1,1948.4,5511.7,1948.4"/>
		<path id="path28" class="st1" d="M7155,2700c-611.5,0-900-288.5-900-900c0-611.6,288.5-900,900-900s900,288.4,900,900
			C8055,2411.5,7766.5,2700,7155,2700"/>
		<path id="path30" class="st2" d="M7569.4,2020c-58.3-101.3-148.9-172.9-250.6-209.6c-51.8-18.7-116.8-19.5-161.1,27.6
			c-9.2-56.4-3.2-108.4,27.9-138.7c13.1-12.8,32.4-23.3,49.7-26.3c21.4-3.8,36.7-4.7,56.3-1.3c0.4-135.3-51.9-251.5-136.7-338.3
			c-27.5,28.1-52.9,60.1-73.5,95.7c-58.6,101.2-75.3,215.4-56.2,321.9c9.7,54.2,41.5,110.9,104.5,125.8
			c-44.3,36.2-92.3,56.9-134,45.1c-17.6-5-36.4-16.4-47.6-29.8c-14-16.7-22.5-29.5-29.3-48.3c-117.2,67.3-191.6,170.6-224.3,287.3
			c38.1,9.7,78.5,15.7,119.6,15.8c116.9,0.2,224.1-42.5,306.9-112.3c42.1-35.5,75.3-91.4,56.7-153.3c53.4,20.2,95.5,51.4,106.1,93.5
			c4.5,17.7,4,39.7-2,56.2c-7.5,20.6-14.4,34.3-27.3,49.7c117,68,243.8,80.9,361.4,50.8C7605,2093.6,7589.9,2055.6,7569.4,2020
			L7569.4,2020z M7154.6,2166.4C7154.6,2166.3,7154.6,2166.3,7154.6,2166.4c-109.9,76.1-231.2,106.3-340.7,106.3
			c-93.4,0-182.5-21.9-261.2-60c14.7-191,124.4-393.4,341.4-498c-11-133.3,23.5-253.5,78.3-348.4c46.7-80.9,110.3-147.1,182.6-196.2
			c158.1,108.2,278.6,304.6,260.5,545c121.1,57.1,208,147.1,262.8,242.1c46.7,80.9,72.2,169,78.6,256.2
			C7584.2,2296.2,7353.9,2302.3,7154.6,2166.4"/>
	</g>
</g>
</svg>
