<?xml version="1.0" encoding="utf-8"?>
<!-- Generator: Adobe Illustrator 12.0.1, SVG Export Plug-In  -->
<!DOCTYPE svg PUBLIC "-//W3C//DTD SVG 1.1//EN" "http://www.w3.org/Graphics/SVG/1.1/DTD/svg11.dtd" [
	<!ENTITY ns_flows "http://ns.adobe.com/Flows/1.0/">
	<!ENTITY ns_svg "http://www.w3.org/2000/svg">
	<!ENTITY ns_xlink "http://www.w3.org/1999/xlink">
]>
<svg  version="1.1" xmlns="&ns_svg;" xmlns:xlink="&ns_xlink;" xmlns:a="http://ns.adobe.com/AdobeSVGViewerExtensions/3.0/"
	 width="500.0" height="200.0" viewBox="0 0 540 216" enable-background="new 0 0 540 216" xml:space="preserve">
<defs>
</defs>
<g>
	<g>
		<g enable-background="new    ">
			<path fill="#010101" d="M38.154,102.185c0.199-0.319,0.322-0.62,0.365-0.89c0.072-0.503-0.155-1.111-0.637-1.708
				c-1.189-1.479-3.593-2.578-5.261-2.419c-2.656,0.254-5.12,2.531-5.527,5.106c-0.401,2.584,1.422,4.534,4.095,4.322
				C33.392,106.427,36.982,104.052,38.154,102.185z"/>
			<path fill="#010101" d="M64.68,98.624c0.189-1.533-1.58-2.917-5.488-4.321C47.436,90.078,40.51,79.555,38.211,63.53
				c0,0-0.012-0.08-0.019-0.153c-0.05-0.045-0.095-0.085-0.095-0.085c-0.55-0.509-1.266-1.019-1.977-0.405
				c-1.541,1.298-0.553,6.879,3.137,22.537c0,0,1.438,6.172,1.438,6.179c0.79,3.511,0.966,6.302,0.577,9.056
				c-0.398,2.763-1.406,5.711-3.276,9.551l-3.406,6.92c-9.094,18.381-12.118,25.174-10.872,26.426
				c0.589,0.582,1.56-0.164,2.339-0.881c0,0,0.074-0.063,0.142-0.123c0.039-0.088,0.067-0.176,0.067-0.176
				c2.446-5.951,5.14-11.256,8.082-15.939c6.504-10.357,14.355-17.839,23.614-22.383c3.461-1.702,5.527-3.141,6.338-4.427
				C64.515,99.281,64.646,98.956,64.68,98.624z"/>
			<path fill="#010101" d="M145.695,66.679c0,0,0.113,0.011,0.216,0.016c0.103-0.051,0.21-0.091,0.21-0.091
				c0.906-0.396,1.914-0.899,2.333-1.568c0.142-0.231,0.227-0.478,0.203-0.754c-0.17-2.253-8.409-2.52-30.303-2.152
				c0,0-7.854,0.103-7.865,0.108c-4.256,0.026-7.229-0.432-9.655-1.483c-2.391-1.047-4.451-2.755-6.697-5.525
				c0,0-3.913-4.912-3.913-4.916C80.434,37.9,76.798,33.901,74.964,35.028c-0.224,0.135-0.377,0.303-0.499,0.494
				c-0.351,0.563-0.351,1.329-0.3,1.98c0,0,0.008,0.085,0.018,0.164c0.045,0.051,0.093,0.1,0.093,0.1
				C85.019,48.662,88.985,62,85.407,77.052c-1.156,4.894-1.127,7.481,0.112,8.11c1.235,0.641,3.744-0.68,7.909-4.162
				C106.632,69.95,123.858,65.03,145.695,66.679z"/>
			<path fill="#010101" d="M110.397,44.803c-2.349-0.908-5.759,0.791-7.645,3.789c-1.795,2.857-2.063,8.357-0.422,9.057
				c1.654,0.71,7.087-2.717,8.917-5.637C113.167,48.959,112.771,45.72,110.397,44.803z"/>
			<path fill="#010101" d="M80.233,148.295c0,0,5.469-6.775,5.471-6.775c3.066-3.758,5.688-6.191,8.515-7.887
				c2.84-1.697,6.15-2.797,10.771-3.584l8.483-1.398c23.535-3.779,32.381-5.646,32.743-8.23c0.17-1.193-1.24-1.758-2.486-2.119
				c0,0-0.108-0.029-0.215-0.059c-0.118,0.021-0.232,0.049-0.232,0.049c-23.451,5.988-41.108,3.688-53.006-6.047
				c-3.649-2.984-5.997-3.929-7.424-3.031c-0.295,0.193-0.558,0.465-0.781,0.822c-0.85,1.346-1.19,3.936-1.061,7.994
				c0.349,11.256-3.097,22.818-10.294,34.271c-3.243,5.178-7.232,10.279-11.927,15.287c0,0-0.073,0.084-0.139,0.158
				c-0.037,0.098-0.066,0.199-0.066,0.199c-0.348,1.184-0.627,2.613,0.211,3.127C60.606,172.182,65.956,166.105,80.233,148.295z"/>
			<path fill="#010101" d="M94.76,147.389c0.804,1.771,2.222,3.086,3.897,3.59c1.348,0.404,2.764,0.256,3.976-0.443
				c1.212-0.695,2.146-1.883,2.627-3.359c0.612-1.834,0.477-3.91-0.374-5.68c-1.504-3.16-6.845-6.156-8.799-4.998
				c-0.26,0.158-0.523,0.436-0.759,0.816c-0.229,0.367-0.437,0.814-0.617,1.355C93.806,141.34,93.816,145.332,94.76,147.389z"/>
		</g>
		<g enable-background="new    ">
			<path fill="#010101" d="M196.193,88.407c0.204-0.163,0.317-0.381,0.323-0.606c-0.006-0.223-0.125-0.424-0.341-0.549
				c-1.567-0.969-35.938-21.836-64.87-14.313c-0.237,0.064-0.442,0.213-0.56,0.401c-0.058,0.1-0.103,0.207-0.113,0.326
				c-0.028,0.319,0.209,0.572,0.56,0.595c19.13,1.36,37.772,11.618,43.283,14.892l0.923,0.54l-0.929,0.702
				c-5.584,4.214-24.99,18.063-44.971,23.105c-0.373,0.104-0.65,0.42-0.65,0.77c-0.011,0.352,0.255,0.629,0.629,0.652
				C159.219,117.555,194.652,89.63,196.193,88.407z"/>
			<path fill="#010101" d="M75.142,48.439c0.246-0.188,0.374-0.5,0.293-0.751c-5.642-18.243-29.76-22.409-30.724-22.564
				c-0.124-0.028-0.271,0.019-0.407,0.124c-0.136,0.097-0.237,0.243-0.286,0.396c-0.359,1.172-8.752,29.331,1.018,43.954
				c0.13,0.194,0.404,0.229,0.64,0.059c0.24-0.158,0.379-0.469,0.333-0.722c-2.35-13.206,1.377-29.07,2.555-33.554l0.192-0.732
				l0.601,0.145c3.653,0.873,16.688,4.513,25.07,13.655C74.589,48.629,74.888,48.624,75.142,48.439z"/>
			<path fill="#010101" d="M62.816,153.605c0.153-0.346,0.086-0.701-0.149-0.889l0,0c-0.229-0.176-0.568-0.113-0.806,0.146
				c-12.276,13.662-28.905,21.391-33.577,23.393l-0.756,0.314l0.043-0.941c0.231-5.662,1.528-24.906,8.341-41.084
				c0.124-0.313,0.067-0.645-0.145-0.775c-0.206-0.137-0.507-0.043-0.717,0.199c-15.505,19.457-16.45,54.641-16.484,56.197
				c-0.006,0.205,0.063,0.385,0.182,0.504c0.119,0.113,0.294,0.143,0.447,0.086C20.44,190.303,51.131,178.969,62.816,153.605z"/>
		</g>
	</g>
</g>
<path fill="#010101" d="M269.63,132.822h9.605v9.006h0.215c2.973-6.422,10.172-10.316,17.676-10.316
	c13.947,0,20.184,9.117,20.184,24.348v33.707h-9.963v-29.391c0-13.221-2.742-19.643-11.4-20.207
	c-11.309,0-16.371,9.561-16.371,23.338v26.26h-9.945V132.822z"/>
<path fill="#010101" d="M363.312,136.85c4.941-3.145,10.883-5.338,17.748-5.338c15.418,0,21.629,8.008,21.629,23.438v23.488
	c0,6.469,0.242,9.459,0.453,11.129h-9.316v-7.352h-0.18c-2.363,3.457-7.625,8.67-16.73,8.67c-11.611,0-19.744-5.334-19.744-17.68
	c0-14.25,14.777-18.693,25.049-18.693c3.91,0,6.629,0,10.547,0.254c0-9.801-3.363-14.797-13.289-14.797
	c-5.631,0-11.643,2.203-15.643,5.775L363.312,136.85 M392.767,162.529c-2.125,0-4.203-0.225-6.344-0.225
	c-5.363,0-18.701,0.889-18.701,10.9c0,6.018,5.504,9.258,10.049,9.258c9.828,0,14.996-6.465,14.996-14.928V162.529z"/>
<path fill="#010101" d="M441.798,141.969c-1.414-0.336-2.848-0.436-4.105-0.436c-9.355,0-15.48,8.902-15.48,23.156v24.877h-10.469
	v-56.285h9.813v9.258h0.207c2.793-5.906,8.805-10.131,14.801-10.131c2.289,0,3.75,0.172,5.234,0.441V141.969z"/>
<path fill="#010101" d="M494.063,131.512c16.359,0,27.371,12.449,27.371,29.703c0,16.227-11.195,29.67-27.371,29.67
	c-16.305,0-27.473-13.443-27.473-29.67C466.591,143.961,477.556,131.512,494.063,131.512 M494.063,182.463
	c11.609,0,16.805-11.115,16.805-21.248c0-10.797-6.246-21.246-16.805-21.246c-10.688,0-16.906,10.449-16.906,21.246
	C477.157,171.348,482.31,182.463,494.063,182.463z"/>
<path fill="#010101" d="M353.165,132.822h-14.547v-16.463l-10.414,3.338v13.068l-8.58,8.564h8.58v33.105
	c0,11.348,6.66,16.449,17.453,16.449c3.088,0,6.135-0.752,8.438-1.406v-8.785c-1.557,0.928-3.783,1.77-6.65,1.77
	c-4.793,0-8.826-3.572-8.826-10.143v-31.037h14.547V132.822z"/>
<rect x="448.29" y="132.822" fill="#010101" width="10.449" height="56.744"/>
<path fill="#010101" d="M453.497,125.258c3.535,0,6.387-2.85,6.387-6.404c0-3.547-2.852-6.396-6.387-6.396
	c-3.551,0-6.418,2.85-6.418,6.396C447.079,122.408,449.946,125.258,453.497,125.258z"/>
<path fill="#010101" d="M226.224,110.611c22.437,0,35.552,17.111,35.552,40.117c0,23.588-13.019,40.156-35.552,40.156
	c-22.498,0-35.491-16.568-35.491-40.156C190.733,127.723,203.844,110.611,226.224,110.611 M226.224,181.117
	c17.029,0,24.334-14.916,24.334-30.389c0-15.771-8.036-30.453-24.334-30.35c-16.242-0.104-24.278,14.578-24.278,30.35
	C201.946,166.201,209.258,181.117,226.224,181.117z"/>
<rect id="_x3C_Slice_x3E__2_" fill="none" width="540" height="216"/>
</svg>
